<?xml version="1.0" encoding="utf-8" standalone="no"?>
<!DOCTYPE svg PUBLIC "-//W3C//DTD SVG 1.1//EN"
  "http://www.w3.org/Graphics/SVG/1.1/DTD/svg11.dtd">
<svg xmlns:xlink="http://www.w3.org/1999/xlink" width="713.275335pt" height="331.058109pt" viewBox="0 0 713.275335 331.058109" xmlns="http://www.w3.org/2000/svg" version="1.1">
 <metadata>
  <rdf:RDF xmlns:dc="http://purl.org/dc/elements/1.1/" xmlns:cc="http://creativecommons.org/ns#" xmlns:rdf="http://www.w3.org/1999/02/22-rdf-syntax-ns#">
   <cc:Work>
    <dc:type rdf:resource="http://purl.org/dc/dcmitype/StillImage"/>
    <dc:date>2026-09-25T15:27:35.952914</dc:date>
    <dc:format>image/svg+xml</dc:format>
    <dc:creator>
     <cc:Agent>
      <dc:title>Matplotlib v3.11.2, https://matplotlib.org/</dc:title>
     </cc:Agent>
    </dc:creator>
   </cc:Work>
  </rdf:RDF>
 </metadata>
 <defs>
  <style type="text/css">*{stroke-linejoin: round; stroke-linecap: butt}</style>
 </defs>
 <g id="figure_1">
  <g id="patch_1">
   <path d="M 0 331.058109 
L 713.275335 331.058109 
L 713.275335 0 
L 0 0 
z
" style="fill: #ffffff"/>
  </g>
  <g id="axes_1">
   <g id="patch_2">
    <path d="M 44.103906 287.848 
L 305.696611 287.848 
L 305.696611 62.724953 
L 44.103906 62.724953 
z
" style="fill: #ffffff"/>
   </g>
   <g id="patch_3">
    <path d="M 55.994484 287.848 
L 123.940641 287.848 
L 123.940641 128.566439 
L 55.994484 128.566439 
z
" clip-path="url(#p2a5ccd3337)" style="fill: #2f6f9f"/>
   </g>
   <g id="patch_4">
    <path d="M 140.92718 287.848 
L 208.873337 287.848 
L 208.873337 264.622493 
L 140.92718 264.622493 
z
" clip-path="url(#p2a5ccd3337)" style="fill: #d27c2c"/>
   </g>
   <g id="patch_5">
    <path d="M 225.859877 287.848 
L 293.806034 287.848 
L 293.806034 245.232022 
L 225.859877 245.232022 
z
" clip-path="url(#p2a5ccd3337)" style="fill: #4b8b5b"/>
   </g>
   <g id="matplotlib.axis_1">
    <g id="xtick_1">
     <g id="line2d_1">
      <defs>
       <path id="m68cd42aeb1" d="M 0 0 
L 0 3.5 
" style="stroke: #000000; stroke-width: 0.8"/>
      </defs>
      <g>
       <use xlink:href="#m68cd42aeb1" x="89.967562" y="287.848" style="stroke: #000000; stroke-width: 0.8"/>
      </g>
     </g>
     <g id="text_1">
      <!-- text -->
      <g transform="translate(80.098812 302.445656) scale(0.1 -0.1)">
       <defs>
        <path id="DejaVuSans-57" d="M 1172 4494 
L 1172 3500 
L 2356 3500 
L 2356 3053 
L 1172 3053 
L 1172 1153 
Q 1172 725 1289 603 
Q 1406 481 1766 481 
L 2356 481 
L 2356 0 
L 1766 0 
Q 1100 0 847 248 
Q 594 497 594 1153 
L 594 3053 
L 172 3053 
L 172 3500 
L 594 3500 
L 594 4494 
L 1172 4494 
z
" transform="scale(0.015625)"/>
        <path id="DejaVuSans-48" d="M 3597 1894 
L 3597 1613 
L 953 1613 
Q 991 1019 1311 708 
Q 1631 397 2203 397 
Q 2534 397 2845 478 
Q 3156 559 3463 722 
L 3463 178 
Q 3153 47 2828 -22 
Q 2503 -91 2169 -91 
Q 1331 -91 842 396 
Q 353 884 353 1716 
Q 353 2575 817 3079 
Q 1281 3584 2069 3584 
Q 2775 3584 3186 3129 
Q 3597 2675 3597 1894 
z
M 3022 2063 
Q 3016 2534 2758 2815 
Q 2500 3097 2075 3097 
Q 1594 3097 1305 2825 
Q 1016 2553 972 2059 
L 3022 2063 
z
" transform="scale(0.015625)"/>
        <path id="DejaVuSans-5b" d="M 3513 3500 
L 2247 1797 
L 3578 0 
L 2900 0 
L 1881 1375 
L 863 0 
L 184 0 
L 1544 1831 
L 300 3500 
L 978 3500 
L 1906 2253 
L 2834 3500 
L 3513 3500 
z
" transform="scale(0.015625)"/>
       </defs>
       <use xlink:href="#DejaVuSans-57"/>
       <use xlink:href="#DejaVuSans-48" transform="translate(39.203125 0)"/>
       <use xlink:href="#DejaVuSans-5b" transform="translate(98.984375 0)"/>
       <use xlink:href="#DejaVuSans-57" transform="translate(158.171875 0)"/>
      </g>
     </g>
    </g>
    <g id="xtick_2">
     <g id="line2d_2">
      <g>
       <use xlink:href="#m68cd42aeb1" x="174.900259" y="287.848" style="stroke: #000000; stroke-width: 0.8"/>
      </g>
     </g>
     <g id="text_2">
      <!-- audio -->
      <g transform="translate(161.04479 302.446438) scale(0.1 -0.1)">
       <defs>
        <path id="DejaVuSans-44" d="M 2194 1759 
Q 1497 1759 1228 1600 
Q 959 1441 959 1056 
Q 959 750 1161 570 
Q 1363 391 1709 391 
Q 2188 391 2477 730 
Q 2766 1069 2766 1631 
L 2766 1759 
L 2194 1759 
z
M 3341 1997 
L 3341 0 
L 2766 0 
L 2766 531 
Q 2569 213 2275 61 
Q 1981 -91 1556 -91 
Q 1019 -91 701 211 
Q 384 513 384 1019 
Q 384 1609 779 1909 
Q 1175 2209 1959 2209 
L 2766 2209 
L 2766 2266 
Q 2766 2663 2505 2880 
Q 2244 3097 1772 3097 
Q 1472 3097 1187 3025 
Q 903 2953 641 2809 
L 641 3341 
Q 956 3463 1253 3523 
Q 1550 3584 1831 3584 
Q 2591 3584 2966 3190 
Q 3341 2797 3341 1997 
z
" transform="scale(0.015625)"/>
        <path id="DejaVuSans-58" d="M 544 1381 
L 544 3500 
L 1119 3500 
L 1119 1403 
Q 1119 906 1312 657 
Q 1506 409 1894 409 
Q 2359 409 2629 706 
Q 2900 1003 2900 1516 
L 2900 3500 
L 3475 3500 
L 3475 0 
L 2900 0 
L 2900 538 
Q 2691 219 2414 64 
Q 2138 -91 1772 -91 
Q 1169 -91 856 284 
Q 544 659 544 1381 
z
M 1991 3584 
L 1991 3584 
z
" transform="scale(0.015625)"/>
        <path id="DejaVuSans-47" d="M 2906 2969 
L 2906 4863 
L 3481 4863 
L 3481 0 
L 2906 0 
L 2906 525 
Q 2725 213 2448 61 
Q 2172 -91 1784 -91 
Q 1150 -91 751 415 
Q 353 922 353 1747 
Q 353 2572 751 3078 
Q 1150 3584 1784 3584 
Q 2172 3584 2448 3432 
Q 2725 3281 2906 2969 
z
M 947 1747 
Q 947 1113 1208 752 
Q 1469 391 1925 391 
Q 2381 391 2643 752 
Q 2906 1113 2906 1747 
Q 2906 2381 2643 2742 
Q 2381 3103 1925 3103 
Q 1469 3103 1208 2742 
Q 947 2381 947 1747 
z
" transform="scale(0.015625)"/>
        <path id="DejaVuSans-4c" d="M 603 3500 
L 1178 3500 
L 1178 0 
L 603 0 
L 603 3500 
z
M 603 4863 
L 1178 4863 
L 1178 4134 
L 603 4134 
L 603 4863 
z
" transform="scale(0.015625)"/>
        <path id="DejaVuSans-52" d="M 1959 3097 
Q 1497 3097 1228 2736 
Q 959 2375 959 1747 
Q 959 1119 1226 758 
Q 1494 397 1959 397 
Q 2419 397 2687 759 
Q 2956 1122 2956 1747 
Q 2956 2369 2687 2733 
Q 2419 3097 1959 3097 
z
M 1959 3584 
Q 2709 3584 3137 3096 
Q 3566 2609 3566 1747 
Q 3566 888 3137 398 
Q 2709 -91 1959 -91 
Q 1206 -91 779 398 
Q 353 888 353 1747 
Q 353 2609 779 3096 
Q 1206 3584 1959 3584 
z
" transform="scale(0.015625)"/>
       </defs>
       <use xlink:href="#DejaVuSans-44"/>
       <use xlink:href="#DejaVuSans-58" transform="translate(61.28125 0)"/>
       <use xlink:href="#DejaVuSans-47" transform="translate(124.65625 0)"/>
       <use xlink:href="#DejaVuSans-4c" transform="translate(188.140625 0)"/>
       <use xlink:href="#DejaVuSans-52" transform="translate(215.921875 0)"/>
      </g>
     </g>
    </g>
    <g id="xtick_3">
     <g id="line2d_3">
      <g>
       <use xlink:href="#m68cd42aeb1" x="259.832955" y="287.848" style="stroke: #000000; stroke-width: 0.8"/>
      </g>
     </g>
     <g id="text_3">
      <!-- vision -->
      <g transform="translate(245.262643 302.446438) scale(0.1 -0.1)">
       <defs>
        <path id="DejaVuSans-59" d="M 191 3500 
L 800 3500 
L 1894 563 
L 2988 3500 
L 3597 3500 
L 2284 0 
L 1503 0 
L 191 3500 
z
" transform="scale(0.015625)"/>
        <path id="DejaVuSans-56" d="M 2834 3397 
L 2834 2853 
Q 2591 2978 2328 3040 
Q 2066 3103 1784 3103 
Q 1356 3103 1142 2972 
Q 928 2841 928 2578 
Q 928 2378 1081 2264 
Q 1234 2150 1697 2047 
L 1894 2003 
Q 2506 1872 2764 1633 
Q 3022 1394 3022 966 
Q 3022 478 2636 193 
Q 2250 -91 1575 -91 
Q 1294 -91 989 -36 
Q 684 19 347 128 
L 347 722 
Q 666 556 975 473 
Q 1284 391 1588 391 
Q 1994 391 2212 530 
Q 2431 669 2431 922 
Q 2431 1156 2273 1281 
Q 2116 1406 1581 1522 
L 1381 1569 
Q 847 1681 609 1914 
Q 372 2147 372 2553 
Q 372 3047 722 3315 
Q 1072 3584 1716 3584 
Q 2034 3584 2315 3537 
Q 2597 3491 2834 3397 
z
" transform="scale(0.015625)"/>
        <path id="DejaVuSans-51" d="M 3513 2113 
L 3513 0 
L 2938 0 
L 2938 2094 
Q 2938 2591 2744 2837 
Q 2550 3084 2163 3084 
Q 1697 3084 1428 2787 
Q 1159 2491 1159 1978 
L 1159 0 
L 581 0 
L 581 3500 
L 1159 3500 
L 1159 2956 
Q 1366 3272 1645 3428 
Q 1925 3584 2291 3584 
Q 2894 3584 3203 3211 
Q 3513 2838 3513 2113 
z
" transform="scale(0.015625)"/>
       </defs>
       <use xlink:href="#DejaVuSans-59"/>
       <use xlink:href="#DejaVuSans-4c" transform="translate(59.1875 0)"/>
       <use xlink:href="#DejaVuSans-56" transform="translate(86.96875 0)"/>
       <use xlink:href="#DejaVuSans-4c" transform="translate(139.0625 0)"/>
       <use xlink:href="#DejaVuSans-52" transform="translate(166.84375 0)"/>
       <use xlink:href="#DejaVuSans-51" transform="translate(228.03125 0)"/>
      </g>
     </g>
    </g>
   </g>
   <g id="matplotlib.axis_2">
    <g id="ytick_1">
     <g id="line2d_4">
      <path d="M 44.103906 287.848 
L 305.696611 287.848 
" clip-path="url(#p2a5ccd3337)" style="fill: none; stroke: #b0b0b0; stroke-opacity: 0.25; stroke-width: 0.8; stroke-linecap: square"/>
     </g>
     <g id="line2d_5">
      <defs>
       <path id="ma868ffacfe" d="M 0 0 
L -3.5 0 
" style="stroke: #000000; stroke-width: 0.8"/>
      </defs>
      <g>
       <use xlink:href="#ma868ffacfe" x="44.103906" y="287.848" style="stroke: #000000; stroke-width: 0.8"/>
      </g>
     </g>
     <g id="text_4">
      <!-- 0.0 -->
      <g transform="translate(21.200781 291.646828) scale(0.1 -0.1)">
       <defs>
        <path id="DejaVuSans-13" d="M 2034 4250 
Q 1547 4250 1301 3770 
Q 1056 3291 1056 2328 
Q 1056 1369 1301 889 
Q 1547 409 2034 409 
Q 2525 409 2770 889 
Q 3016 1369 3016 2328 
Q 3016 3291 2770 3770 
Q 2525 4250 2034 4250 
z
M 2034 4750 
Q 2819 4750 3233 4129 
Q 3647 3509 3647 2328 
Q 3647 1150 3233 529 
Q 2819 -91 2034 -91 
Q 1250 -91 836 529 
Q 422 1150 422 2328 
Q 422 3509 836 4129 
Q 1250 4750 2034 4750 
z
" transform="scale(0.015625)"/>
        <path id="DejaVuSans-11" d="M 684 794 
L 1344 794 
L 1344 0 
L 684 0 
L 684 794 
z
" transform="scale(0.015625)"/>
       </defs>
       <use xlink:href="#DejaVuSans-13"/>
       <use xlink:href="#DejaVuSans-11" transform="translate(63.625 0)"/>
       <use xlink:href="#DejaVuSans-13" transform="translate(95.40625 0)"/>
      </g>
     </g>
    </g>
    <g id="ytick_2">
     <g id="line2d_6">
      <path d="M 44.103906 242.823391 
L 305.696611 242.823391 
" clip-path="url(#p2a5ccd3337)" style="fill: none; stroke: #b0b0b0; stroke-opacity: 0.25; stroke-width: 0.8; stroke-linecap: square"/>
     </g>
     <g id="line2d_7">
      <g>
       <use xlink:href="#ma868ffacfe" x="44.103906" y="242.823391" style="stroke: #000000; stroke-width: 0.8"/>
      </g>
     </g>
     <g id="text_5">
      <!-- 0.2 -->
      <g transform="translate(21.200781 246.622219) scale(0.1 -0.1)">
       <defs>
        <path id="DejaVuSans-15" d="M 1228 531 
L 3431 531 
L 3431 0 
L 469 0 
L 469 531 
Q 828 903 1448 1529 
Q 2069 2156 2228 2338 
Q 2531 2678 2651 2914 
Q 2772 3150 2772 3378 
Q 2772 3750 2511 3984 
Q 2250 4219 1831 4219 
Q 1534 4219 1204 4116 
Q 875 4013 500 3803 
L 500 4441 
Q 881 4594 1212 4672 
Q 1544 4750 1819 4750 
Q 2544 4750 2975 4387 
Q 3406 4025 3406 3419 
Q 3406 3131 3298 2873 
Q 3191 2616 2906 2266 
Q 2828 2175 2409 1742 
Q 1991 1309 1228 531 
z
" transform="scale(0.015625)"/>
       </defs>
       <use xlink:href="#DejaVuSans-13"/>
       <use xlink:href="#DejaVuSans-11" transform="translate(63.625 0)"/>
       <use xlink:href="#DejaVuSans-15" transform="translate(95.40625 0)"/>
      </g>
     </g>
    </g>
    <g id="ytick_3">
     <g id="line2d_8">
      <path d="M 44.103906 197.798781 
L 305.696611 197.798781 
" clip-path="url(#p2a5ccd3337)" style="fill: none; stroke: #b0b0b0; stroke-opacity: 0.25; stroke-width: 0.8; stroke-linecap: square"/>
     </g>
     <g id="line2d_9">
      <g>
       <use xlink:href="#ma868ffacfe" x="44.103906" y="197.798781" style="stroke: #000000; stroke-width: 0.8"/>
      </g>
     </g>
     <g id="text_6">
      <!-- 0.4 -->
      <g transform="translate(21.200781 201.597609) scale(0.1 -0.1)">
       <defs>
        <path id="DejaVuSans-17" d="M 2419 4116 
L 825 1625 
L 2419 1625 
L 2419 4116 
z
M 2253 4666 
L 3047 4666 
L 3047 1625 
L 3713 1625 
L 3713 1100 
L 3047 1100 
L 3047 0 
L 2419 0 
L 2419 1100 
L 313 1100 
L 313 1709 
L 2253 4666 
z
" transform="scale(0.015625)"/>
       </defs>
       <use xlink:href="#DejaVuSans-13"/>
       <use xlink:href="#DejaVuSans-11" transform="translate(63.625 0)"/>
       <use xlink:href="#DejaVuSans-17" transform="translate(95.40625 0)"/>
      </g>
     </g>
    </g>
    <g id="ytick_4">
     <g id="line2d_10">
      <path d="M 44.103906 152.774172 
L 305.696611 152.774172 
" clip-path="url(#p2a5ccd3337)" style="fill: none; stroke: #b0b0b0; stroke-opacity: 0.25; stroke-width: 0.8; stroke-linecap: square"/>
     </g>
     <g id="line2d_11">
      <g>
       <use xlink:href="#ma868ffacfe" x="44.103906" y="152.774172" style="stroke: #000000; stroke-width: 0.8"/>
      </g>
     </g>
     <g id="text_7">
      <!-- 0.6 -->
      <g transform="translate(21.200781 156.573) scale(0.1 -0.1)">
       <defs>
        <path id="DejaVuSans-19" d="M 2113 2584 
Q 1688 2584 1439 2293 
Q 1191 2003 1191 1497 
Q 1191 994 1439 701 
Q 1688 409 2113 409 
Q 2538 409 2786 701 
Q 3034 994 3034 1497 
Q 3034 2003 2786 2293 
Q 2538 2584 2113 2584 
z
M 3366 4563 
L 3366 3988 
Q 3128 4100 2886 4159 
Q 2644 4219 2406 4219 
Q 1781 4219 1451 3797 
Q 1122 3375 1075 2522 
Q 1259 2794 1537 2939 
Q 1816 3084 2150 3084 
Q 2853 3084 3261 2657 
Q 3669 2231 3669 1497 
Q 3669 778 3244 343 
Q 2819 -91 2113 -91 
Q 1303 -91 875 529 
Q 447 1150 447 2328 
Q 447 3434 972 4092 
Q 1497 4750 2381 4750 
Q 2619 4750 2861 4703 
Q 3103 4656 3366 4563 
z
" transform="scale(0.015625)"/>
       </defs>
       <use xlink:href="#DejaVuSans-13"/>
       <use xlink:href="#DejaVuSans-11" transform="translate(63.625 0)"/>
       <use xlink:href="#DejaVuSans-19" transform="translate(95.40625 0)"/>
      </g>
     </g>
    </g>
    <g id="ytick_5">
     <g id="line2d_12">
      <path d="M 44.103906 107.749562 
L 305.696611 107.749562 
" clip-path="url(#p2a5ccd3337)" style="fill: none; stroke: #b0b0b0; stroke-opacity: 0.25; stroke-width: 0.8; stroke-linecap: square"/>
     </g>
     <g id="line2d_13">
      <g>
       <use xlink:href="#ma868ffacfe" x="44.103906" y="107.749562" style="stroke: #000000; stroke-width: 0.8"/>
      </g>
     </g>
     <g id="text_8">
      <!-- 0.8 -->
      <g transform="translate(21.200781 111.548391) scale(0.1 -0.1)">
       <defs>
        <path id="DejaVuSans-1b" d="M 2034 2216 
Q 1584 2216 1326 1975 
Q 1069 1734 1069 1313 
Q 1069 891 1326 650 
Q 1584 409 2034 409 
Q 2484 409 2743 651 
Q 3003 894 3003 1313 
Q 3003 1734 2745 1975 
Q 2488 2216 2034 2216 
z
M 1403 2484 
Q 997 2584 770 2862 
Q 544 3141 544 3541 
Q 544 4100 942 4425 
Q 1341 4750 2034 4750 
Q 2731 4750 3128 4425 
Q 3525 4100 3525 3541 
Q 3525 3141 3298 2862 
Q 3072 2584 2669 2484 
Q 3125 2378 3379 2068 
Q 3634 1759 3634 1313 
Q 3634 634 3220 271 
Q 2806 -91 2034 -91 
Q 1263 -91 848 271 
Q 434 634 434 1313 
Q 434 1759 690 2068 
Q 947 2378 1403 2484 
z
M 1172 3481 
Q 1172 3119 1398 2916 
Q 1625 2713 2034 2713 
Q 2441 2713 2670 2916 
Q 2900 3119 2900 3481 
Q 2900 3844 2670 4047 
Q 2441 4250 2034 4250 
Q 1625 4250 1398 4047 
Q 1172 3844 1172 3481 
z
" transform="scale(0.015625)"/>
       </defs>
       <use xlink:href="#DejaVuSans-13"/>
       <use xlink:href="#DejaVuSans-11" transform="translate(63.625 0)"/>
       <use xlink:href="#DejaVuSans-1b" transform="translate(95.40625 0)"/>
      </g>
     </g>
    </g>
    <g id="ytick_6">
     <g id="line2d_14">
      <path d="M 44.103906 62.724953 
L 305.696611 62.724953 
" clip-path="url(#p2a5ccd3337)" style="fill: none; stroke: #b0b0b0; stroke-opacity: 0.25; stroke-width: 0.8; stroke-linecap: square"/>
     </g>
     <g id="line2d_15">
      <g>
       <use xlink:href="#ma868ffacfe" x="44.103906" y="62.724953" style="stroke: #000000; stroke-width: 0.8"/>
      </g>
     </g>
     <g id="text_9">
      <!-- 1.0 -->
      <g transform="translate(21.200781 66.523781) scale(0.1 -0.1)">
       <defs>
        <path id="DejaVuSans-14" d="M 794 531 
L 1825 531 
L 1825 4091 
L 703 3866 
L 703 4441 
L 1819 4666 
L 2450 4666 
L 2450 531 
L 3481 531 
L 3481 0 
L 794 0 
L 794 531 
z
" transform="scale(0.015625)"/>
       </defs>
       <use xlink:href="#DejaVuSans-14"/>
       <use xlink:href="#DejaVuSans-11" transform="translate(63.625 0)"/>
       <use xlink:href="#DejaVuSans-13" transform="translate(95.40625 0)"/>
      </g>
     </g>
    </g>
    <g id="text_10">
     <!-- Mean normalized absolute effect -->
     <g transform="translate(14.798438 257.264602) rotate(-90) scale(0.1 -0.1)">
      <defs>
       <path id="DejaVuSans-30" d="M 628 4666 
L 1569 4666 
L 2759 1491 
L 3956 4666 
L 4897 4666 
L 4897 0 
L 4281 0 
L 4281 4097 
L 3078 897 
L 2444 897 
L 1241 4097 
L 1241 0 
L 628 0 
L 628 4666 
z
" transform="scale(0.015625)"/>
       <path id="DejaVuSans-3" transform="scale(0.015625)"/>
       <path id="DejaVuSans-55" d="M 2631 2963 
Q 2534 3019 2420 3045 
Q 2306 3072 2169 3072 
Q 1681 3072 1420 2755 
Q 1159 2438 1159 1844 
L 1159 0 
L 581 0 
L 581 3500 
L 1159 3500 
L 1159 2956 
Q 1341 3275 1631 3429 
Q 1922 3584 2338 3584 
Q 2397 3584 2469 3576 
Q 2541 3569 2628 3553 
L 2631 2963 
z
" transform="scale(0.015625)"/>
       <path id="DejaVuSans-50" d="M 3328 2828 
Q 3544 3216 3844 3400 
Q 4144 3584 4550 3584 
Q 5097 3584 5394 3201 
Q 5691 2819 5691 2113 
L 5691 0 
L 5113 0 
L 5113 2094 
Q 5113 2597 4934 2840 
Q 4756 3084 4391 3084 
Q 3944 3084 3684 2787 
Q 3425 2491 3425 1978 
L 3425 0 
L 2847 0 
L 2847 2094 
Q 2847 2600 2669 2842 
Q 2491 3084 2119 3084 
Q 1678 3084 1418 2786 
Q 1159 2488 1159 1978 
L 1159 0 
L 581 0 
L 581 3500 
L 1159 3500 
L 1159 2956 
Q 1356 3278 1631 3431 
Q 1906 3584 2284 3584 
Q 2666 3584 2933 3390 
Q 3200 3197 3328 2828 
z
" transform="scale(0.015625)"/>
       <path id="DejaVuSans-4f" d="M 603 4863 
L 1178 4863 
L 1178 0 
L 603 0 
L 603 4863 
z
" transform="scale(0.015625)"/>
       <path id="DejaVuSans-5d" d="M 353 3500 
L 3084 3500 
L 3084 2975 
L 922 459 
L 3084 459 
L 3084 0 
L 275 0 
L 275 525 
L 2438 3041 
L 353 3041 
L 353 3500 
z
" transform="scale(0.015625)"/>
       <path id="DejaVuSans-45" d="M 3116 1747 
Q 3116 2381 2855 2742 
Q 2594 3103 2138 3103 
Q 1681 3103 1420 2742 
Q 1159 2381 1159 1747 
Q 1159 1113 1420 752 
Q 1681 391 2138 391 
Q 2594 391 2855 752 
Q 3116 1113 3116 1747 
z
M 1159 2969 
Q 1341 3281 1617 3432 
Q 1894 3584 2278 3584 
Q 2916 3584 3314 3078 
Q 3713 2572 3713 1747 
Q 3713 922 3314 415 
Q 2916 -91 2278 -91 
Q 1894 -91 1617 61 
Q 1341 213 1159 525 
L 1159 0 
L 581 0 
L 581 4863 
L 1159 4863 
L 1159 2969 
z
" transform="scale(0.015625)"/>
       <path id="DejaVuSans-13ae" d="M 4531 4863 
L 4531 4384 
L 3981 4384 
Q 3672 4384 3551 4259 
Q 3431 4134 3431 3809 
L 3431 3500 
L 4378 3500 
L 4378 3053 
L 3431 3053 
L 3431 0 
L 2853 0 
L 2853 3053 
L 1275 3053 
L 1275 0 
L 697 0 
L 697 3053 
L 147 3053 
L 147 3500 
L 697 3500 
L 697 3744 
Q 697 4328 969 4595 
Q 1241 4863 1831 4863 
L 2375 4863 
L 2375 4384 
L 1825 4384 
Q 1516 4384 1394 4259 
Q 1275 4134 1275 3809 
L 1275 3500 
L 2853 3500 
L 2853 3744 
Q 2853 4328 3125 4595 
Q 3397 4863 3988 4863 
L 4531 4863 
z
" transform="scale(0.015625)"/>
       <path id="DejaVuSans-46" d="M 3122 3366 
L 3122 2828 
Q 2878 2963 2633 3030 
Q 2388 3097 2138 3097 
Q 1578 3097 1268 2742 
Q 959 2388 959 1747 
Q 959 1106 1268 751 
Q 1578 397 2138 397 
Q 2388 397 2633 464 
Q 2878 531 3122 666 
L 3122 134 
Q 2881 22 2623 -34 
Q 2366 -91 2075 -91 
Q 1284 -91 818 406 
Q 353 903 353 1747 
Q 353 2603 823 3093 
Q 1294 3584 2113 3584 
Q 2378 3584 2631 3529 
Q 2884 3475 3122 3366 
z
" transform="scale(0.015625)"/>
      </defs>
      <use xlink:href="#DejaVuSans-30"/>
      <use xlink:href="#DejaVuSans-48" transform="translate(86.28125 0)"/>
      <use xlink:href="#DejaVuSans-44" transform="translate(147.8125 0)"/>
      <use xlink:href="#DejaVuSans-51" transform="translate(209.09375 0)"/>
      <use xlink:href="#DejaVuSans-3" transform="translate(272.46875 0)"/>
      <use xlink:href="#DejaVuSans-51" transform="translate(304.25 0)"/>
      <use xlink:href="#DejaVuSans-52" transform="translate(367.625 0)"/>
      <use xlink:href="#DejaVuSans-55" transform="translate(428.8125 0)"/>
      <use xlink:href="#DejaVuSans-50" transform="translate(468.171875 0)"/>
      <use xlink:href="#DejaVuSans-44" transform="translate(565.578125 0)"/>
      <use xlink:href="#DejaVuSans-4f" transform="translate(626.859375 0)"/>
      <use xlink:href="#DejaVuSans-4c" transform="translate(654.640625 0)"/>
      <use xlink:href="#DejaVuSans-5d" transform="translate(682.421875 0)"/>
      <use xlink:href="#DejaVuSans-48" transform="translate(734.90625 0)"/>
      <use xlink:href="#DejaVuSans-47" transform="translate(796.4375 0)"/>
      <use xlink:href="#DejaVuSans-3" transform="translate(859.921875 0)"/>
      <use xlink:href="#DejaVuSans-44" transform="translate(891.703125 0)"/>
      <use xlink:href="#DejaVuSans-45" transform="translate(952.984375 0)"/>
      <use xlink:href="#DejaVuSans-56" transform="translate(1016.46875 0)"/>
      <use xlink:href="#DejaVuSans-52" transform="translate(1068.5625 0)"/>
      <use xlink:href="#DejaVuSans-4f" transform="translate(1129.75 0)"/>
      <use xlink:href="#DejaVuSans-58" transform="translate(1157.53125 0)"/>
      <use xlink:href="#DejaVuSans-57" transform="translate(1220.90625 0)"/>
      <use xlink:href="#DejaVuSans-48" transform="translate(1260.109375 0)"/>
      <use xlink:href="#DejaVuSans-3" transform="translate(1321.640625 0)"/>
      <use xlink:href="#DejaVuSans-48" transform="translate(1353.421875 0)"/>
      <use xlink:href="#DejaVuSans-13ae" transform="translate(1414.953125 0)"/>
      <use xlink:href="#DejaVuSans-48" transform="translate(1483.84375 0)"/>
      <use xlink:href="#DejaVuSans-46" transform="translate(1545.375 0)"/>
      <use xlink:href="#DejaVuSans-57" transform="translate(1600.359375 0)"/>
     </g>
    </g>
   </g>
   <g id="patch_6">
    <path d="M 44.103906 287.848 
L 44.103906 62.724953 
" style="fill: none; stroke: #000000; stroke-width: 0.8; stroke-linejoin: miter; stroke-linecap: square"/>
   </g>
   <g id="patch_7">
    <path d="M 305.696611 287.848 
L 305.696611 62.724953 
" style="fill: none; stroke: #000000; stroke-width: 0.8; stroke-linejoin: miter; stroke-linecap: square"/>
   </g>
   <g id="patch_8">
    <path d="M 44.103906 287.848 
L 305.696611 287.848 
" style="fill: none; stroke: #000000; stroke-width: 0.8; stroke-linejoin: miter; stroke-linecap: square"/>
   </g>
   <g id="patch_9">
    <path d="M 44.103906 62.724953 
L 305.696611 62.724953 
" style="fill: none; stroke: #000000; stroke-width: 0.8; stroke-linejoin: miter; stroke-linecap: square"/>
   </g>
   <g id="text_11">
    <!-- Across 20 Attachment-4 samples -->
    <g transform="translate(67.643149 56.724953) scale(0.13 -0.13)">
     <defs>
      <path id="DejaVuSans-24" d="M 2188 4044 
L 1331 1722 
L 3047 1722 
L 2188 4044 
z
M 1831 4666 
L 2547 4666 
L 4325 0 
L 3669 0 
L 3244 1197 
L 1141 1197 
L 716 0 
L 50 0 
L 1831 4666 
z
" transform="scale(0.015625)"/>
      <path id="DejaVuSans-4b" d="M 3513 2113 
L 3513 0 
L 2938 0 
L 2938 2094 
Q 2938 2591 2744 2837 
Q 2550 3084 2163 3084 
Q 1697 3084 1428 2787 
Q 1159 2491 1159 1978 
L 1159 0 
L 581 0 
L 581 4863 
L 1159 4863 
L 1159 2956 
Q 1366 3272 1645 3428 
Q 1925 3584 2291 3584 
Q 2894 3584 3203 3211 
Q 3513 2838 3513 2113 
z
" transform="scale(0.015625)"/>
      <path id="DejaVuSans-10" d="M 313 2009 
L 1997 2009 
L 1997 1497 
L 313 1497 
L 313 2009 
z
" transform="scale(0.015625)"/>
      <path id="DejaVuSans-53" d="M 1159 525 
L 1159 -1331 
L 581 -1331 
L 581 3500 
L 1159 3500 
L 1159 2969 
Q 1341 3281 1617 3432 
Q 1894 3584 2278 3584 
Q 2916 3584 3314 3078 
Q 3713 2572 3713 1747 
Q 3713 922 3314 415 
Q 2916 -91 2278 -91 
Q 1894 -91 1617 61 
Q 1341 213 1159 525 
z
M 3116 1747 
Q 3116 2381 2855 2742 
Q 2594 3103 2138 3103 
Q 1681 3103 1420 2742 
Q 1159 2381 1159 1747 
Q 1159 1113 1420 752 
Q 1681 391 2138 391 
Q 2594 391 2855 752 
Q 3116 1113 3116 1747 
z
" transform="scale(0.015625)"/>
     </defs>
     <use xlink:href="#DejaVuSans-24"/>
     <use xlink:href="#DejaVuSans-46" transform="translate(66.65625 0)"/>
     <use xlink:href="#DejaVuSans-55" transform="translate(121.640625 0)"/>
     <use xlink:href="#DejaVuSans-52" transform="translate(160.546875 0)"/>
     <use xlink:href="#DejaVuSans-56" transform="translate(221.734375 0)"/>
     <use xlink:href="#DejaVuSans-56" transform="translate(273.828125 0)"/>
     <use xlink:href="#DejaVuSans-3" transform="translate(325.921875 0)"/>
     <use xlink:href="#DejaVuSans-15" transform="translate(357.703125 0)"/>
     <use xlink:href="#DejaVuSans-13" transform="translate(421.328125 0)"/>
     <use xlink:href="#DejaVuSans-3" transform="translate(484.953125 0)"/>
     <use xlink:href="#DejaVuSans-24" transform="translate(516.734375 0)"/>
     <use xlink:href="#DejaVuSans-57" transform="translate(583.390625 0)"/>
     <use xlink:href="#DejaVuSans-57" transform="translate(622.59375 0)"/>
     <use xlink:href="#DejaVuSans-44" transform="translate(661.796875 0)"/>
     <use xlink:href="#DejaVuSans-46" transform="translate(723.078125 0)"/>
     <use xlink:href="#DejaVuSans-4b" transform="translate(778.0625 0)"/>
     <use xlink:href="#DejaVuSans-50" transform="translate(841.4375 0)"/>
     <use xlink:href="#DejaVuSans-48" transform="translate(938.84375 0)"/>
     <use xlink:href="#DejaVuSans-51" transform="translate(1000.375 0)"/>
     <use xlink:href="#DejaVuSans-57" transform="translate(1063.75 0)"/>
     <use xlink:href="#DejaVuSans-10" transform="translate(1102.953125 0)"/>
     <use xlink:href="#DejaVuSans-17" transform="translate(1139.03125 0)"/>
     <use xlink:href="#DejaVuSans-3" transform="translate(1202.65625 0)"/>
     <use xlink:href="#DejaVuSans-56" transform="translate(1234.4375 0)"/>
     <use xlink:href="#DejaVuSans-44" transform="translate(1286.53125 0)"/>
     <use xlink:href="#DejaVuSans-50" transform="translate(1347.8125 0)"/>
     <use xlink:href="#DejaVuSans-53" transform="translate(1445.21875 0)"/>
     <use xlink:href="#DejaVuSans-4f" transform="translate(1508.703125 0)"/>
     <use xlink:href="#DejaVuSans-48" transform="translate(1536.484375 0)"/>
     <use xlink:href="#DejaVuSans-56" transform="translate(1598.015625 0)"/>
    </g>
   </g>
  </g>
  <g id="axes_2">
   <g id="patch_10">
    <path d="M 352.925183 287.848 
L 706.075335 287.848 
L 706.075335 62.724953 
L 352.925183 62.724953 
z
" style="fill: #ffffff"/>
   </g>
   <g id="PathCollection_1">
    <defs>
     <path id="m0cee314de4" d="M 0 2.44949 
C 0.649612 2.44949 1.272706 2.191396 1.732051 1.732051 
C 2.191396 1.272706 2.44949 0.649612 2.44949 0 
C 2.44949 -0.649612 2.191396 -1.272706 1.732051 -1.732051 
C 1.272706 -2.191396 0.649612 -2.44949 0 -2.44949 
C -0.649612 -2.44949 -1.272706 -2.191396 -1.732051 -1.732051 
C -2.191396 -1.272706 -2.44949 -0.649612 -2.44949 0 
C -2.44949 0.649612 -2.191396 1.272706 -1.732051 1.732051 
C -1.272706 2.191396 -0.649612 2.44949 0 2.44949 
z
" style="stroke: #2f6f9f; stroke-opacity: 0.72"/>
    </defs>
    <g clip-path="url(#p3c66cedf46)">
     <use xlink:href="#m0cee314de4" x="389.915219" y="278.328085" style="fill: #2f6f9f; fill-opacity: 0.72; stroke: #2f6f9f; stroke-opacity: 0.72"/>
     <use xlink:href="#m0cee314de4" x="389.915219" y="146.815304" style="fill: #2f6f9f; fill-opacity: 0.72; stroke: #2f6f9f; stroke-opacity: 0.72"/>
     <use xlink:href="#m0cee314de4" x="389.915219" y="137.034426" style="fill: #2f6f9f; fill-opacity: 0.72; stroke: #2f6f9f; stroke-opacity: 0.72"/>
     <use xlink:href="#m0cee314de4" x="389.915219" y="75.327794" style="fill: #2f6f9f; fill-opacity: 0.72; stroke: #2f6f9f; stroke-opacity: 0.72"/>
     <use xlink:href="#m0cee314de4" x="389.915219" y="222.667118" style="fill: #2f6f9f; fill-opacity: 0.72; stroke: #2f6f9f; stroke-opacity: 0.72"/>
     <use xlink:href="#m0cee314de4" x="389.915219" y="91.724289" style="fill: #2f6f9f; fill-opacity: 0.72; stroke: #2f6f9f; stroke-opacity: 0.72"/>
     <use xlink:href="#m0cee314de4" x="389.915219" y="95.023657" style="fill: #2f6f9f; fill-opacity: 0.72; stroke: #2f6f9f; stroke-opacity: 0.72"/>
     <use xlink:href="#m0cee314de4" x="389.915219" y="113.163684" style="fill: #2f6f9f; fill-opacity: 0.72; stroke: #2f6f9f; stroke-opacity: 0.72"/>
     <use xlink:href="#m0cee314de4" x="389.915219" y="62.893912" style="fill: #2f6f9f; fill-opacity: 0.72; stroke: #2f6f9f; stroke-opacity: 0.72"/>
     <use xlink:href="#m0cee314de4" x="389.915219" y="63.443627" style="fill: #2f6f9f; fill-opacity: 0.72; stroke: #2f6f9f; stroke-opacity: 0.72"/>
     <use xlink:href="#m0cee314de4" x="389.915219" y="70.48978" style="fill: #2f6f9f; fill-opacity: 0.72; stroke: #2f6f9f; stroke-opacity: 0.72"/>
     <use xlink:href="#m0cee314de4" x="389.915219" y="92.328776" style="fill: #2f6f9f; fill-opacity: 0.72; stroke: #2f6f9f; stroke-opacity: 0.72"/>
     <use xlink:href="#m0cee314de4" x="389.915219" y="163.785398" style="fill: #2f6f9f; fill-opacity: 0.72; stroke: #2f6f9f; stroke-opacity: 0.72"/>
     <use xlink:href="#m0cee314de4" x="389.915219" y="204.240829" style="fill: #2f6f9f; fill-opacity: 0.72; stroke: #2f6f9f; stroke-opacity: 0.72"/>
     <use xlink:href="#m0cee314de4" x="389.915219" y="110.148005" style="fill: #2f6f9f; fill-opacity: 0.72; stroke: #2f6f9f; stroke-opacity: 0.72"/>
     <use xlink:href="#m0cee314de4" x="389.915219" y="62.749777" style="fill: #2f6f9f; fill-opacity: 0.72; stroke: #2f6f9f; stroke-opacity: 0.72"/>
     <use xlink:href="#m0cee314de4" x="389.915219" y="68.793869" style="fill: #2f6f9f; fill-opacity: 0.72; stroke: #2f6f9f; stroke-opacity: 0.72"/>
     <use xlink:href="#m0cee314de4" x="389.915219" y="150.591831" style="fill: #2f6f9f; fill-opacity: 0.72; stroke: #2f6f9f; stroke-opacity: 0.72"/>
     <use xlink:href="#m0cee314de4" x="389.915219" y="263.231929" style="fill: #2f6f9f; fill-opacity: 0.72; stroke: #2f6f9f; stroke-opacity: 0.72"/>
     <use xlink:href="#m0cee314de4" x="389.915219" y="98.546681" style="fill: #2f6f9f; fill-opacity: 0.72; stroke: #2f6f9f; stroke-opacity: 0.72"/>
    </g>
   </g>
   <g id="PathCollection_2">
    <defs>
     <path id="me136b1fb13" d="M 0 2.44949 
C 0.649612 2.44949 1.272706 2.191396 1.732051 1.732051 
C 2.191396 1.272706 2.44949 0.649612 2.44949 0 
C 2.44949 -0.649612 2.191396 -1.272706 1.732051 -1.732051 
C 1.272706 -2.191396 0.649612 -2.44949 0 -2.44949 
C -0.649612 -2.44949 -1.272706 -2.191396 -1.732051 -1.732051 
C -2.191396 -1.272706 -2.44949 -0.649612 -2.44949 0 
C -2.44949 0.649612 -2.191396 1.272706 -1.732051 1.732051 
C -1.272706 2.191396 -0.649612 2.44949 0 2.44949 
z
" style="stroke: #d27c2c; stroke-opacity: 0.72"/>
    </defs>
    <g clip-path="url(#p3c66cedf46)">
     <use xlink:href="#me136b1fb13" x="529.500259" y="206.560543" style="fill: #d27c2c; fill-opacity: 0.72; stroke: #d27c2c; stroke-opacity: 0.72"/>
     <use xlink:href="#me136b1fb13" x="529.500259" y="252.704667" style="fill: #d27c2c; fill-opacity: 0.72; stroke: #d27c2c; stroke-opacity: 0.72"/>
     <use xlink:href="#me136b1fb13" x="529.500259" y="276.099122" style="fill: #d27c2c; fill-opacity: 0.72; stroke: #d27c2c; stroke-opacity: 0.72"/>
     <use xlink:href="#me136b1fb13" x="529.500259" y="275.55401" style="fill: #d27c2c; fill-opacity: 0.72; stroke: #d27c2c; stroke-opacity: 0.72"/>
     <use xlink:href="#me136b1fb13" x="529.500259" y="283.533737" style="fill: #d27c2c; fill-opacity: 0.72; stroke: #d27c2c; stroke-opacity: 0.72"/>
     <use xlink:href="#me136b1fb13" x="529.500259" y="286.520005" style="fill: #d27c2c; fill-opacity: 0.72; stroke: #d27c2c; stroke-opacity: 0.72"/>
     <use xlink:href="#me136b1fb13" x="529.500259" y="266.70516" style="fill: #d27c2c; fill-opacity: 0.72; stroke: #d27c2c; stroke-opacity: 0.72"/>
     <use xlink:href="#me136b1fb13" x="529.500259" y="264.248844" style="fill: #d27c2c; fill-opacity: 0.72; stroke: #d27c2c; stroke-opacity: 0.72"/>
     <use xlink:href="#me136b1fb13" x="529.500259" y="287.796997" style="fill: #d27c2c; fill-opacity: 0.72; stroke: #d27c2c; stroke-opacity: 0.72"/>
     <use xlink:href="#me136b1fb13" x="529.500259" y="287.719422" style="fill: #d27c2c; fill-opacity: 0.72; stroke: #d27c2c; stroke-opacity: 0.72"/>
     <use xlink:href="#me136b1fb13" x="529.500259" y="286.493177" style="fill: #d27c2c; fill-opacity: 0.72; stroke: #d27c2c; stroke-opacity: 0.72"/>
     <use xlink:href="#me136b1fb13" x="529.500259" y="277.966505" style="fill: #d27c2c; fill-opacity: 0.72; stroke: #d27c2c; stroke-opacity: 0.72"/>
     <use xlink:href="#me136b1fb13" x="529.500259" y="186.787555" style="fill: #d27c2c; fill-opacity: 0.72; stroke: #d27c2c; stroke-opacity: 0.72"/>
     <use xlink:href="#me136b1fb13" x="529.500259" y="250.452121" style="fill: #d27c2c; fill-opacity: 0.72; stroke: #d27c2c; stroke-opacity: 0.72"/>
     <use xlink:href="#me136b1fb13" x="529.500259" y="252.808387" style="fill: #d27c2c; fill-opacity: 0.72; stroke: #d27c2c; stroke-opacity: 0.72"/>
     <use xlink:href="#me136b1fb13" x="529.500259" y="287.847501" style="fill: #d27c2c; fill-opacity: 0.72; stroke: #d27c2c; stroke-opacity: 0.72"/>
     <use xlink:href="#me136b1fb13" x="529.500259" y="283.180671" style="fill: #d27c2c; fill-opacity: 0.72; stroke: #d27c2c; stroke-opacity: 0.72"/>
     <use xlink:href="#me136b1fb13" x="529.500259" y="280.213068" style="fill: #d27c2c; fill-opacity: 0.72; stroke: #d27c2c; stroke-opacity: 0.72"/>
     <use xlink:href="#me136b1fb13" x="529.500259" y="225.19627" style="fill: #d27c2c; fill-opacity: 0.72; stroke: #d27c2c; stroke-opacity: 0.72"/>
     <use xlink:href="#me136b1fb13" x="529.500259" y="274.062095" style="fill: #d27c2c; fill-opacity: 0.72; stroke: #d27c2c; stroke-opacity: 0.72"/>
    </g>
   </g>
   <g id="PathCollection_3">
    <defs>
     <path id="m60ad90b8f7" d="M 0 2.44949 
C 0.649612 2.44949 1.272706 2.191396 1.732051 1.732051 
C 2.191396 1.272706 2.44949 0.649612 2.44949 0 
C 2.44949 -0.649612 2.191396 -1.272706 1.732051 -1.732051 
C 1.272706 -2.191396 0.649612 -2.44949 0 -2.44949 
C -0.649612 -2.44949 -1.272706 -2.191396 -1.732051 -1.732051 
C -2.191396 -1.272706 -2.44949 -0.649612 -2.44949 0 
C -2.44949 0.649612 -2.191396 1.272706 -1.732051 1.732051 
C -1.272706 2.191396 -0.649612 2.44949 0 2.44949 
z
" style="stroke: #4b8b5b; stroke-opacity: 0.72"/>
    </defs>
    <g clip-path="url(#p3c66cedf46)">
     <use xlink:href="#m60ad90b8f7" x="669.085299" y="153.532325" style="fill: #4b8b5b; fill-opacity: 0.72; stroke: #4b8b5b; stroke-opacity: 0.72"/>
     <use xlink:href="#m60ad90b8f7" x="669.085299" y="238.900983" style="fill: #4b8b5b; fill-opacity: 0.72; stroke: #4b8b5b; stroke-opacity: 0.72"/>
     <use xlink:href="#m60ad90b8f7" x="669.085299" y="225.287405" style="fill: #4b8b5b; fill-opacity: 0.72; stroke: #4b8b5b; stroke-opacity: 0.72"/>
     <use xlink:href="#m60ad90b8f7" x="669.085299" y="287.539149" style="fill: #4b8b5b; fill-opacity: 0.72; stroke: #4b8b5b; stroke-opacity: 0.72"/>
     <use xlink:href="#m60ad90b8f7" x="669.085299" y="132.220098" style="fill: #4b8b5b; fill-opacity: 0.72; stroke: #4b8b5b; stroke-opacity: 0.72"/>
     <use xlink:href="#m60ad90b8f7" x="669.085299" y="260.176659" style="fill: #4b8b5b; fill-opacity: 0.72; stroke: #4b8b5b; stroke-opacity: 0.72"/>
     <use xlink:href="#m60ad90b8f7" x="669.085299" y="276.692136" style="fill: #4b8b5b; fill-opacity: 0.72; stroke: #4b8b5b; stroke-opacity: 0.72"/>
     <use xlink:href="#m60ad90b8f7" x="669.085299" y="261.008425" style="fill: #4b8b5b; fill-opacity: 0.72; stroke: #4b8b5b; stroke-opacity: 0.72"/>
     <use xlink:href="#m60ad90b8f7" x="669.085299" y="287.730044" style="fill: #4b8b5b; fill-opacity: 0.72; stroke: #4b8b5b; stroke-opacity: 0.72"/>
     <use xlink:href="#m60ad90b8f7" x="669.085299" y="287.257904" style="fill: #4b8b5b; fill-opacity: 0.72; stroke: #4b8b5b; stroke-opacity: 0.72"/>
     <use xlink:href="#m60ad90b8f7" x="669.085299" y="281.437995" style="fill: #4b8b5b; fill-opacity: 0.72; stroke: #4b8b5b; stroke-opacity: 0.72"/>
     <use xlink:href="#m60ad90b8f7" x="669.085299" y="268.125673" style="fill: #4b8b5b; fill-opacity: 0.72; stroke: #4b8b5b; stroke-opacity: 0.72"/>
     <use xlink:href="#m60ad90b8f7" x="669.085299" y="287.848" style="fill: #4b8b5b; fill-opacity: 0.72; stroke: #4b8b5b; stroke-opacity: 0.72"/>
     <use xlink:href="#m60ad90b8f7" x="669.085299" y="183.728002" style="fill: #4b8b5b; fill-opacity: 0.72; stroke: #4b8b5b; stroke-opacity: 0.72"/>
     <use xlink:href="#m60ad90b8f7" x="669.085299" y="275.464561" style="fill: #4b8b5b; fill-opacity: 0.72; stroke: #4b8b5b; stroke-opacity: 0.72"/>
     <use xlink:href="#m60ad90b8f7" x="669.085299" y="287.823675" style="fill: #4b8b5b; fill-opacity: 0.72; stroke: #4b8b5b; stroke-opacity: 0.72"/>
     <use xlink:href="#m60ad90b8f7" x="669.085299" y="286.446413" style="fill: #4b8b5b; fill-opacity: 0.72; stroke: #4b8b5b; stroke-opacity: 0.72"/>
     <use xlink:href="#m60ad90b8f7" x="669.085299" y="207.616054" style="fill: #4b8b5b; fill-opacity: 0.72; stroke: #4b8b5b; stroke-opacity: 0.72"/>
     <use xlink:href="#m60ad90b8f7" x="669.085299" y="149.992754" style="fill: #4b8b5b; fill-opacity: 0.72; stroke: #4b8b5b; stroke-opacity: 0.72"/>
     <use xlink:href="#m60ad90b8f7" x="669.085299" y="265.812177" style="fill: #4b8b5b; fill-opacity: 0.72; stroke: #4b8b5b; stroke-opacity: 0.72"/>
    </g>
   </g>
   <g id="matplotlib.axis_3">
    <g id="xtick_4">
     <g id="line2d_16">
      <g>
       <use xlink:href="#m68cd42aeb1" x="389.915219" y="287.848" style="stroke: #000000; stroke-width: 0.8"/>
      </g>
     </g>
     <g id="text_12">
      <!-- text -->
      <g transform="translate(380.046469 302.445656) scale(0.1 -0.1)">
       <use xlink:href="#DejaVuSans-57"/>
       <use xlink:href="#DejaVuSans-48" transform="translate(39.203125 0)"/>
       <use xlink:href="#DejaVuSans-5b" transform="translate(98.984375 0)"/>
       <use xlink:href="#DejaVuSans-57" transform="translate(158.171875 0)"/>
      </g>
     </g>
    </g>
    <g id="xtick_5">
     <g id="line2d_17">
      <g>
       <use xlink:href="#m68cd42aeb1" x="529.500259" y="287.848" style="stroke: #000000; stroke-width: 0.8"/>
      </g>
     </g>
     <g id="text_13">
      <!-- audio -->
      <g transform="translate(515.64479 302.446438) scale(0.1 -0.1)">
       <use xlink:href="#DejaVuSans-44"/>
       <use xlink:href="#DejaVuSans-58" transform="translate(61.28125 0)"/>
       <use xlink:href="#DejaVuSans-47" transform="translate(124.65625 0)"/>
       <use xlink:href="#DejaVuSans-4c" transform="translate(188.140625 0)"/>
       <use xlink:href="#DejaVuSans-52" transform="translate(215.921875 0)"/>
      </g>
     </g>
    </g>
    <g id="xtick_6">
     <g id="line2d_18">
      <g>
       <use xlink:href="#m68cd42aeb1" x="669.085299" y="287.848" style="stroke: #000000; stroke-width: 0.8"/>
      </g>
     </g>
     <g id="text_14">
      <!-- vision -->
      <g transform="translate(654.514987 302.446438) scale(0.1 -0.1)">
       <use xlink:href="#DejaVuSans-59"/>
       <use xlink:href="#DejaVuSans-4c" transform="translate(59.1875 0)"/>
       <use xlink:href="#DejaVuSans-56" transform="translate(86.96875 0)"/>
       <use xlink:href="#DejaVuSans-4c" transform="translate(139.0625 0)"/>
       <use xlink:href="#DejaVuSans-52" transform="translate(166.84375 0)"/>
       <use xlink:href="#DejaVuSans-51" transform="translate(228.03125 0)"/>
      </g>
     </g>
    </g>
   </g>
   <g id="matplotlib.axis_4">
    <g id="ytick_7">
     <g id="line2d_19">
      <path d="M 352.925183 287.848 
L 706.075335 287.848 
" clip-path="url(#p3c66cedf46)" style="fill: none; stroke: #b0b0b0; stroke-opacity: 0.25; stroke-width: 0.8; stroke-linecap: square"/>
     </g>
     <g id="line2d_20">
      <g>
       <use xlink:href="#ma868ffacfe" x="352.925183" y="287.848" style="stroke: #000000; stroke-width: 0.8"/>
      </g>
     </g>
     <g id="text_15">
      <!-- 0.0 -->
      <g transform="translate(330.022058 291.646828) scale(0.1 -0.1)">
       <use xlink:href="#DejaVuSans-13"/>
       <use xlink:href="#DejaVuSans-11" transform="translate(63.625 0)"/>
       <use xlink:href="#DejaVuSans-13" transform="translate(95.40625 0)"/>
      </g>
     </g>
    </g>
    <g id="ytick_8">
     <g id="line2d_21">
      <path d="M 352.925183 242.823391 
L 706.075335 242.823391 
" clip-path="url(#p3c66cedf46)" style="fill: none; stroke: #b0b0b0; stroke-opacity: 0.25; stroke-width: 0.8; stroke-linecap: square"/>
     </g>
     <g id="line2d_22">
      <g>
       <use xlink:href="#ma868ffacfe" x="352.925183" y="242.823391" style="stroke: #000000; stroke-width: 0.8"/>
      </g>
     </g>
     <g id="text_16">
      <!-- 0.2 -->
      <g transform="translate(330.022058 246.622219) scale(0.1 -0.1)">
       <use xlink:href="#DejaVuSans-13"/>
       <use xlink:href="#DejaVuSans-11" transform="translate(63.625 0)"/>
       <use xlink:href="#DejaVuSans-15" transform="translate(95.40625 0)"/>
      </g>
     </g>
    </g>
    <g id="ytick_9">
     <g id="line2d_23">
      <path d="M 352.925183 197.798781 
L 706.075335 197.798781 
" clip-path="url(#p3c66cedf46)" style="fill: none; stroke: #b0b0b0; stroke-opacity: 0.25; stroke-width: 0.8; stroke-linecap: square"/>
     </g>
     <g id="line2d_24">
      <g>
       <use xlink:href="#ma868ffacfe" x="352.925183" y="197.798781" style="stroke: #000000; stroke-width: 0.8"/>
      </g>
     </g>
     <g id="text_17">
      <!-- 0.4 -->
      <g transform="translate(330.022058 201.597609) scale(0.1 -0.1)">
       <use xlink:href="#DejaVuSans-13"/>
       <use xlink:href="#DejaVuSans-11" transform="translate(63.625 0)"/>
       <use xlink:href="#DejaVuSans-17" transform="translate(95.40625 0)"/>
      </g>
     </g>
    </g>
    <g id="ytick_10">
     <g id="line2d_25">
      <path d="M 352.925183 152.774172 
L 706.075335 152.774172 
" clip-path="url(#p3c66cedf46)" style="fill: none; stroke: #b0b0b0; stroke-opacity: 0.25; stroke-width: 0.8; stroke-linecap: square"/>
     </g>
     <g id="line2d_26">
      <g>
       <use xlink:href="#ma868ffacfe" x="352.925183" y="152.774172" style="stroke: #000000; stroke-width: 0.8"/>
      </g>
     </g>
     <g id="text_18">
      <!-- 0.6 -->
      <g transform="translate(330.022058 156.573) scale(0.1 -0.1)">
       <use xlink:href="#DejaVuSans-13"/>
       <use xlink:href="#DejaVuSans-11" transform="translate(63.625 0)"/>
       <use xlink:href="#DejaVuSans-19" transform="translate(95.40625 0)"/>
      </g>
     </g>
    </g>
    <g id="ytick_11">
     <g id="line2d_27">
      <path d="M 352.925183 107.749562 
L 706.075335 107.749562 
" clip-path="url(#p3c66cedf46)" style="fill: none; stroke: #b0b0b0; stroke-opacity: 0.25; stroke-width: 0.8; stroke-linecap: square"/>
     </g>
     <g id="line2d_28">
      <g>
       <use xlink:href="#ma868ffacfe" x="352.925183" y="107.749562" style="stroke: #000000; stroke-width: 0.8"/>
      </g>
     </g>
     <g id="text_19">
      <!-- 0.8 -->
      <g transform="translate(330.022058 111.548391) scale(0.1 -0.1)">
       <use xlink:href="#DejaVuSans-13"/>
       <use xlink:href="#DejaVuSans-11" transform="translate(63.625 0)"/>
       <use xlink:href="#DejaVuSans-1b" transform="translate(95.40625 0)"/>
      </g>
     </g>
    </g>
    <g id="ytick_12">
     <g id="line2d_29">
      <path d="M 352.925183 62.724953 
L 706.075335 62.724953 
" clip-path="url(#p3c66cedf46)" style="fill: none; stroke: #b0b0b0; stroke-opacity: 0.25; stroke-width: 0.8; stroke-linecap: square"/>
     </g>
     <g id="line2d_30">
      <g>
       <use xlink:href="#ma868ffacfe" x="352.925183" y="62.724953" style="stroke: #000000; stroke-width: 0.8"/>
      </g>
     </g>
     <g id="text_20">
      <!-- 1.0 -->
      <g transform="translate(330.022058 66.523781) scale(0.1 -0.1)">
       <use xlink:href="#DejaVuSans-14"/>
       <use xlink:href="#DejaVuSans-11" transform="translate(63.625 0)"/>
       <use xlink:href="#DejaVuSans-13" transform="translate(95.40625 0)"/>
      </g>
     </g>
    </g>
    <g id="text_21">
     <!-- Per-sample normalized absolute effect -->
     <g transform="translate(323.619714 271.273195) rotate(-90) scale(0.1 -0.1)">
      <defs>
       <path id="DejaVuSans-33" d="M 1259 4147 
L 1259 2394 
L 2053 2394 
Q 2494 2394 2734 2622 
Q 2975 2850 2975 3272 
Q 2975 3691 2734 3919 
Q 2494 4147 2053 4147 
L 1259 4147 
z
M 628 4666 
L 2053 4666 
Q 2838 4666 3239 4311 
Q 3641 3956 3641 3272 
Q 3641 2581 3239 2228 
Q 2838 1875 2053 1875 
L 1259 1875 
L 1259 0 
L 628 0 
L 628 4666 
z
" transform="scale(0.015625)"/>
      </defs>
      <use xlink:href="#DejaVuSans-33"/>
      <use xlink:href="#DejaVuSans-48" transform="translate(56.734375 0)"/>
      <use xlink:href="#DejaVuSans-55" transform="translate(118.265625 0)"/>
      <use xlink:href="#DejaVuSans-10" transform="translate(152.984375 0)"/>
      <use xlink:href="#DejaVuSans-56" transform="translate(189.0625 0)"/>
      <use xlink:href="#DejaVuSans-44" transform="translate(241.15625 0)"/>
      <use xlink:href="#DejaVuSans-50" transform="translate(302.4375 0)"/>
      <use xlink:href="#DejaVuSans-53" transform="translate(399.84375 0)"/>
      <use xlink:href="#DejaVuSans-4f" transform="translate(463.328125 0)"/>
      <use xlink:href="#DejaVuSans-48" transform="translate(491.109375 0)"/>
      <use xlink:href="#DejaVuSans-3" transform="translate(552.640625 0)"/>
      <use xlink:href="#DejaVuSans-51" transform="translate(584.421875 0)"/>
      <use xlink:href="#DejaVuSans-52" transform="translate(647.796875 0)"/>
      <use xlink:href="#DejaVuSans-55" transform="translate(708.984375 0)"/>
      <use xlink:href="#DejaVuSans-50" transform="translate(748.34375 0)"/>
      <use xlink:href="#DejaVuSans-44" transform="translate(845.75 0)"/>
      <use xlink:href="#DejaVuSans-4f" transform="translate(907.03125 0)"/>
      <use xlink:href="#DejaVuSans-4c" transform="translate(934.8125 0)"/>
      <use xlink:href="#DejaVuSans-5d" transform="translate(962.59375 0)"/>
      <use xlink:href="#DejaVuSans-48" transform="translate(1015.078125 0)"/>
      <use xlink:href="#DejaVuSans-47" transform="translate(1076.609375 0)"/>
      <use xlink:href="#DejaVuSans-3" transform="translate(1140.09375 0)"/>
      <use xlink:href="#DejaVuSans-44" transform="translate(1171.875 0)"/>
      <use xlink:href="#DejaVuSans-45" transform="translate(1233.15625 0)"/>
      <use xlink:href="#DejaVuSans-56" transform="translate(1296.640625 0)"/>
      <use xlink:href="#DejaVuSans-52" transform="translate(1348.734375 0)"/>
      <use xlink:href="#DejaVuSans-4f" transform="translate(1409.921875 0)"/>
      <use xlink:href="#DejaVuSans-58" transform="translate(1437.703125 0)"/>
      <use xlink:href="#DejaVuSans-57" transform="translate(1501.078125 0)"/>
      <use xlink:href="#DejaVuSans-48" transform="translate(1540.28125 0)"/>
      <use xlink:href="#DejaVuSans-3" transform="translate(1601.8125 0)"/>
      <use xlink:href="#DejaVuSans-48" transform="translate(1633.59375 0)"/>
      <use xlink:href="#DejaVuSans-13ae" transform="translate(1695.125 0)"/>
      <use xlink:href="#DejaVuSans-48" transform="translate(1764.015625 0)"/>
      <use xlink:href="#DejaVuSans-46" transform="translate(1825.546875 0)"/>
      <use xlink:href="#DejaVuSans-57" transform="translate(1880.53125 0)"/>
     </g>
    </g>
   </g>
   <g id="line2d_31">
    <path d="M 368.977462 128.566439 
L 410.852975 128.566439 
" clip-path="url(#p3c66cedf46)" style="fill: none; stroke: #000000; stroke-width: 2; stroke-linecap: square"/>
   </g>
   <g id="line2d_32">
    <path d="M 508.562503 264.622493 
L 550.438015 264.622493 
" clip-path="url(#p3c66cedf46)" style="fill: none; stroke: #000000; stroke-width: 2; stroke-linecap: square"/>
   </g>
   <g id="line2d_33">
    <path d="M 648.147543 245.232022 
L 690.023055 245.232022 
" clip-path="url(#p3c66cedf46)" style="fill: none; stroke: #000000; stroke-width: 2; stroke-linecap: square"/>
   </g>
   <g id="patch_11">
    <path d="M 352.925183 287.848 
L 352.925183 62.724953 
" style="fill: none; stroke: #000000; stroke-width: 0.8; stroke-linejoin: miter; stroke-linecap: square"/>
   </g>
   <g id="patch_12">
    <path d="M 706.075335 287.848 
L 706.075335 62.724953 
" style="fill: none; stroke: #000000; stroke-width: 0.8; stroke-linejoin: miter; stroke-linecap: square"/>
   </g>
   <g id="patch_13">
    <path d="M 352.925183 287.848 
L 706.075335 287.848 
" style="fill: none; stroke: #000000; stroke-width: 0.8; stroke-linejoin: miter; stroke-linecap: square"/>
   </g>
   <g id="patch_14">
    <path d="M 352.925183 62.724953 
L 706.075335 62.724953 
" style="fill: none; stroke: #000000; stroke-width: 0.8; stroke-linejoin: miter; stroke-linecap: square"/>
   </g>
   <g id="text_22">
    <!-- Per-sample spread -->
    <g transform="translate(469.362056 56.724953) scale(0.13 -0.13)">
     <use xlink:href="#DejaVuSans-33"/>
     <use xlink:href="#DejaVuSans-48" transform="translate(56.734375 0)"/>
     <use xlink:href="#DejaVuSans-55" transform="translate(118.265625 0)"/>
     <use xlink:href="#DejaVuSans-10" transform="translate(152.984375 0)"/>
     <use xlink:href="#DejaVuSans-56" transform="translate(189.0625 0)"/>
     <use xlink:href="#DejaVuSans-44" transform="translate(241.15625 0)"/>
     <use xlink:href="#DejaVuSans-50" transform="translate(302.4375 0)"/>
     <use xlink:href="#DejaVuSans-53" transform="translate(399.84375 0)"/>
     <use xlink:href="#DejaVuSans-4f" transform="translate(463.328125 0)"/>
     <use xlink:href="#DejaVuSans-48" transform="translate(491.109375 0)"/>
     <use xlink:href="#DejaVuSans-3" transform="translate(552.640625 0)"/>
     <use xlink:href="#DejaVuSans-56" transform="translate(584.421875 0)"/>
     <use xlink:href="#DejaVuSans-53" transform="translate(636.515625 0)"/>
     <use xlink:href="#DejaVuSans-55" transform="translate(700 0)"/>
     <use xlink:href="#DejaVuSans-48" transform="translate(738.90625 0)"/>
     <use xlink:href="#DejaVuSans-44" transform="translate(800.4375 0)"/>
     <use xlink:href="#DejaVuSans-47" transform="translate(861.71875 0)"/>
    </g>
   </g>
  </g>
  <g id="text_23">
   <!-- Q3: leave-one-modality-out sensitivity of frozen ensemble -->
   <g transform="translate(182.23596 16.318125) scale(0.12 -0.12)">
    <defs>
     <path id="DejaVuSans-34" d="M 2522 4238 
Q 1834 4238 1429 3725 
Q 1025 3213 1025 2328 
Q 1025 1447 1429 934 
Q 1834 422 2522 422 
Q 3209 422 3611 934 
Q 4013 1447 4013 2328 
Q 4013 3213 3611 3725 
Q 3209 4238 2522 4238 
z
M 3406 84 
L 4238 -825 
L 3475 -825 
L 2784 -78 
Q 2681 -84 2626 -87 
Q 2572 -91 2522 -91 
Q 1538 -91 948 567 
Q 359 1225 359 2328 
Q 359 3434 948 4092 
Q 1538 4750 2522 4750 
Q 3503 4750 4090 4092 
Q 4678 3434 4678 2328 
Q 4678 1516 4351 937 
Q 4025 359 3406 84 
z
" transform="scale(0.015625)"/>
     <path id="DejaVuSans-16" d="M 2597 2516 
Q 3050 2419 3304 2112 
Q 3559 1806 3559 1356 
Q 3559 666 3084 287 
Q 2609 -91 1734 -91 
Q 1441 -91 1130 -33 
Q 819 25 488 141 
L 488 750 
Q 750 597 1062 519 
Q 1375 441 1716 441 
Q 2309 441 2620 675 
Q 2931 909 2931 1356 
Q 2931 1769 2642 2001 
Q 2353 2234 1838 2234 
L 1294 2234 
L 1294 2753 
L 1863 2753 
Q 2328 2753 2575 2939 
Q 2822 3125 2822 3475 
Q 2822 3834 2567 4026 
Q 2313 4219 1838 4219 
Q 1578 4219 1281 4162 
Q 984 4106 628 3988 
L 628 4550 
Q 988 4650 1302 4700 
Q 1616 4750 1894 4750 
Q 2613 4750 3031 4423 
Q 3450 4097 3450 3541 
Q 3450 3153 3228 2886 
Q 3006 2619 2597 2516 
z
" transform="scale(0.015625)"/>
     <path id="DejaVuSans-1d" d="M 750 794 
L 1409 794 
L 1409 0 
L 750 0 
L 750 794 
z
M 750 3309 
L 1409 3309 
L 1409 2516 
L 750 2516 
L 750 3309 
z
" transform="scale(0.015625)"/>
     <path id="DejaVuSans-5c" d="M 2059 -325 
Q 1816 -950 1584 -1140 
Q 1353 -1331 966 -1331 
L 506 -1331 
L 506 -850 
L 844 -850 
Q 1081 -850 1212 -737 
Q 1344 -625 1503 -206 
L 1606 56 
L 191 3500 
L 800 3500 
L 1894 763 
L 2988 3500 
L 3597 3500 
L 2059 -325 
z
" transform="scale(0.015625)"/>
     <path id="DejaVuSans-49" d="M 2375 4863 
L 2375 4384 
L 1825 4384 
Q 1516 4384 1395 4259 
Q 1275 4134 1275 3809 
L 1275 3500 
L 2222 3500 
L 2222 3053 
L 1275 3053 
L 1275 0 
L 697 0 
L 697 3053 
L 147 3053 
L 147 3500 
L 697 3500 
L 697 3744 
Q 697 4328 969 4595 
Q 1241 4863 1831 4863 
L 2375 4863 
z
" transform="scale(0.015625)"/>
    </defs>
    <use xlink:href="#DejaVuSans-34"/>
    <use xlink:href="#DejaVuSans-16" transform="translate(78.71875 0)"/>
    <use xlink:href="#DejaVuSans-1d" transform="translate(142.34375 0)"/>
    <use xlink:href="#DejaVuSans-3" transform="translate(176.03125 0)"/>
    <use xlink:href="#DejaVuSans-4f" transform="translate(207.8125 0)"/>
    <use xlink:href="#DejaVuSans-48" transform="translate(235.59375 0)"/>
    <use xlink:href="#DejaVuSans-44" transform="translate(297.125 0)"/>
    <use xlink:href="#DejaVuSans-59" transform="translate(358.40625 0)"/>
    <use xlink:href="#DejaVuSans-48" transform="translate(417.59375 0)"/>
    <use xlink:href="#DejaVuSans-10" transform="translate(479.125 0)"/>
    <use xlink:href="#DejaVuSans-52" transform="translate(517.0625 0)"/>
    <use xlink:href="#DejaVuSans-51" transform="translate(578.25 0)"/>
    <use xlink:href="#DejaVuSans-48" transform="translate(641.625 0)"/>
    <use xlink:href="#DejaVuSans-10" transform="translate(703.15625 0)"/>
    <use xlink:href="#DejaVuSans-50" transform="translate(739.234375 0)"/>
    <use xlink:href="#DejaVuSans-52" transform="translate(836.640625 0)"/>
    <use xlink:href="#DejaVuSans-47" transform="translate(897.828125 0)"/>
    <use xlink:href="#DejaVuSans-44" transform="translate(961.3125 0)"/>
    <use xlink:href="#DejaVuSans-4f" transform="translate(1022.59375 0)"/>
    <use xlink:href="#DejaVuSans-4c" transform="translate(1050.375 0)"/>
    <use xlink:href="#DejaVuSans-57" transform="translate(1078.15625 0)"/>
    <use xlink:href="#DejaVuSans-5c" transform="translate(1117.359375 0)"/>
    <use xlink:href="#DejaVuSans-10" transform="translate(1174.796875 0)"/>
    <use xlink:href="#DejaVuSans-52" transform="translate(1212.734375 0)"/>
    <use xlink:href="#DejaVuSans-58" transform="translate(1273.921875 0)"/>
    <use xlink:href="#DejaVuSans-57" transform="translate(1337.296875 0)"/>
    <use xlink:href="#DejaVuSans-3" transform="translate(1376.5 0)"/>
    <use xlink:href="#DejaVuSans-56" transform="translate(1408.28125 0)"/>
    <use xlink:href="#DejaVuSans-48" transform="translate(1460.375 0)"/>
    <use xlink:href="#DejaVuSans-51" transform="translate(1521.90625 0)"/>
    <use xlink:href="#DejaVuSans-56" transform="translate(1585.28125 0)"/>
    <use xlink:href="#DejaVuSans-4c" transform="translate(1637.375 0)"/>
    <use xlink:href="#DejaVuSans-57" transform="translate(1665.15625 0)"/>
    <use xlink:href="#DejaVuSans-4c" transform="translate(1704.359375 0)"/>
    <use xlink:href="#DejaVuSans-59" transform="translate(1732.140625 0)"/>
    <use xlink:href="#DejaVuSans-4c" transform="translate(1791.328125 0)"/>
    <use xlink:href="#DejaVuSans-57" transform="translate(1819.109375 0)"/>
    <use xlink:href="#DejaVuSans-5c" transform="translate(1858.3125 0)"/>
    <use xlink:href="#DejaVuSans-3" transform="translate(1917.5 0)"/>
    <use xlink:href="#DejaVuSans-52" transform="translate(1949.28125 0)"/>
    <use xlink:href="#DejaVuSans-49" transform="translate(2010.46875 0)"/>
    <use xlink:href="#DejaVuSans-3" transform="translate(2045.671875 0)"/>
    <use xlink:href="#DejaVuSans-49" transform="translate(2077.453125 0)"/>
    <use xlink:href="#DejaVuSans-55" transform="translate(2112.65625 0)"/>
    <use xlink:href="#DejaVuSans-52" transform="translate(2151.5625 0)"/>
    <use xlink:href="#DejaVuSans-5d" transform="translate(2212.75 0)"/>
    <use xlink:href="#DejaVuSans-48" transform="translate(2265.234375 0)"/>
    <use xlink:href="#DejaVuSans-51" transform="translate(2326.765625 0)"/>
    <use xlink:href="#DejaVuSans-3" transform="translate(2390.140625 0)"/>
    <use xlink:href="#DejaVuSans-48" transform="translate(2421.921875 0)"/>
    <use xlink:href="#DejaVuSans-51" transform="translate(2483.453125 0)"/>
    <use xlink:href="#DejaVuSans-56" transform="translate(2546.828125 0)"/>
    <use xlink:href="#DejaVuSans-48" transform="translate(2598.921875 0)"/>
    <use xlink:href="#DejaVuSans-50" transform="translate(2660.453125 0)"/>
    <use xlink:href="#DejaVuSans-45" transform="translate(2757.859375 0)"/>
    <use xlink:href="#DejaVuSans-4f" transform="translate(2821.34375 0)"/>
    <use xlink:href="#DejaVuSans-48" transform="translate(2849.125 0)"/>
   </g>
  </g>
  <g id="text_24">
   <!-- Absolute probability change is normalized within each sample; this is model sensitivity, not causal proof. -->
   <g transform="translate(120.86721 321.696) scale(0.09 -0.09)">
    <defs>
     <path id="DejaVuSans-4a" d="M 2906 1791 
Q 2906 2416 2648 2759 
Q 2391 3103 1925 3103 
Q 1463 3103 1205 2759 
Q 947 2416 947 1791 
Q 947 1169 1205 825 
Q 1463 481 1925 481 
Q 2391 481 2648 825 
Q 2906 1169 2906 1791 
z
M 3481 434 
Q 3481 -459 3084 -895 
Q 2688 -1331 1869 -1331 
Q 1566 -1331 1297 -1286 
Q 1028 -1241 775 -1147 
L 775 -588 
Q 1028 -725 1275 -790 
Q 1522 -856 1778 -856 
Q 2344 -856 2625 -561 
Q 2906 -266 2906 331 
L 2906 616 
Q 2728 306 2450 153 
Q 2172 0 1784 0 
Q 1141 0 747 490 
Q 353 981 353 1791 
Q 353 2603 747 3093 
Q 1141 3584 1784 3584 
Q 2172 3584 2450 3431 
Q 2728 3278 2906 2969 
L 2906 3500 
L 3481 3500 
L 3481 434 
z
" transform="scale(0.015625)"/>
     <path id="DejaVuSans-5a" d="M 269 3500 
L 844 3500 
L 1563 769 
L 2278 3500 
L 2956 3500 
L 3675 769 
L 4391 3500 
L 4966 3500 
L 4050 0 
L 3372 0 
L 2619 2869 
L 1863 0 
L 1184 0 
L 269 3500 
z
" transform="scale(0.015625)"/>
     <path id="DejaVuSans-1e" d="M 750 3309 
L 1409 3309 
L 1409 2516 
L 750 2516 
L 750 3309 
z
M 750 794 
L 1409 794 
L 1409 256 
L 897 -744 
L 494 -744 
L 750 256 
L 750 794 
z
" transform="scale(0.015625)"/>
     <path id="DejaVuSans-f" d="M 750 794 
L 1409 794 
L 1409 256 
L 897 -744 
L 494 -744 
L 750 256 
L 750 794 
z
" transform="scale(0.015625)"/>
    </defs>
    <use xlink:href="#DejaVuSans-24"/>
    <use xlink:href="#DejaVuSans-45" transform="translate(68.40625 0)"/>
    <use xlink:href="#DejaVuSans-56" transform="translate(131.890625 0)"/>
    <use xlink:href="#DejaVuSans-52" transform="translate(183.984375 0)"/>
    <use xlink:href="#DejaVuSans-4f" transform="translate(245.171875 0)"/>
    <use xlink:href="#DejaVuSans-58" transform="translate(272.953125 0)"/>
    <use xlink:href="#DejaVuSans-57" transform="translate(336.328125 0)"/>
    <use xlink:href="#DejaVuSans-48" transform="translate(375.53125 0)"/>
    <use xlink:href="#DejaVuSans-3" transform="translate(437.0625 0)"/>
    <use xlink:href="#DejaVuSans-53" transform="translate(468.84375 0)"/>
    <use xlink:href="#DejaVuSans-55" transform="translate(532.328125 0)"/>
    <use xlink:href="#DejaVuSans-52" transform="translate(571.234375 0)"/>
    <use xlink:href="#DejaVuSans-45" transform="translate(632.421875 0)"/>
    <use xlink:href="#DejaVuSans-44" transform="translate(695.90625 0)"/>
    <use xlink:href="#DejaVuSans-45" transform="translate(757.1875 0)"/>
    <use xlink:href="#DejaVuSans-4c" transform="translate(820.671875 0)"/>
    <use xlink:href="#DejaVuSans-4f" transform="translate(848.453125 0)"/>
    <use xlink:href="#DejaVuSans-4c" transform="translate(876.234375 0)"/>
    <use xlink:href="#DejaVuSans-57" transform="translate(904.015625 0)"/>
    <use xlink:href="#DejaVuSans-5c" transform="translate(943.21875 0)"/>
    <use xlink:href="#DejaVuSans-3" transform="translate(1002.40625 0)"/>
    <use xlink:href="#DejaVuSans-46" transform="translate(1034.1875 0)"/>
    <use xlink:href="#DejaVuSans-4b" transform="translate(1089.171875 0)"/>
    <use xlink:href="#DejaVuSans-44" transform="translate(1152.546875 0)"/>
    <use xlink:href="#DejaVuSans-51" transform="translate(1213.828125 0)"/>
    <use xlink:href="#DejaVuSans-4a" transform="translate(1277.203125 0)"/>
    <use xlink:href="#DejaVuSans-48" transform="translate(1340.6875 0)"/>
    <use xlink:href="#DejaVuSans-3" transform="translate(1402.21875 0)"/>
    <use xlink:href="#DejaVuSans-4c" transform="translate(1434 0)"/>
    <use xlink:href="#DejaVuSans-56" transform="translate(1461.78125 0)"/>
    <use xlink:href="#DejaVuSans-3" transform="translate(1513.875 0)"/>
    <use xlink:href="#DejaVuSans-51" transform="translate(1545.65625 0)"/>
    <use xlink:href="#DejaVuSans-52" transform="translate(1609.03125 0)"/>
    <use xlink:href="#DejaVuSans-55" transform="translate(1670.21875 0)"/>
    <use xlink:href="#DejaVuSans-50" transform="translate(1709.578125 0)"/>
    <use xlink:href="#DejaVuSans-44" transform="translate(1806.984375 0)"/>
    <use xlink:href="#DejaVuSans-4f" transform="translate(1868.265625 0)"/>
    <use xlink:href="#DejaVuSans-4c" transform="translate(1896.046875 0)"/>
    <use xlink:href="#DejaVuSans-5d" transform="translate(1923.828125 0)"/>
    <use xlink:href="#DejaVuSans-48" transform="translate(1976.3125 0)"/>
    <use xlink:href="#DejaVuSans-47" transform="translate(2037.84375 0)"/>
    <use xlink:href="#DejaVuSans-3" transform="translate(2101.328125 0)"/>
    <use xlink:href="#DejaVuSans-5a" transform="translate(2133.109375 0)"/>
    <use xlink:href="#DejaVuSans-4c" transform="translate(2214.890625 0)"/>
    <use xlink:href="#DejaVuSans-57" transform="translate(2242.671875 0)"/>
    <use xlink:href="#DejaVuSans-4b" transform="translate(2281.875 0)"/>
    <use xlink:href="#DejaVuSans-4c" transform="translate(2345.25 0)"/>
    <use xlink:href="#DejaVuSans-51" transform="translate(2373.03125 0)"/>
    <use xlink:href="#DejaVuSans-3" transform="translate(2436.40625 0)"/>
    <use xlink:href="#DejaVuSans-48" transform="translate(2468.1875 0)"/>
    <use xlink:href="#DejaVuSans-44" transform="translate(2529.71875 0)"/>
    <use xlink:href="#DejaVuSans-46" transform="translate(2591 0)"/>
    <use xlink:href="#DejaVuSans-4b" transform="translate(2645.984375 0)"/>
    <use xlink:href="#DejaVuSans-3" transform="translate(2709.359375 0)"/>
    <use xlink:href="#DejaVuSans-56" transform="translate(2741.140625 0)"/>
    <use xlink:href="#DejaVuSans-44" transform="translate(2793.234375 0)"/>
    <use xlink:href="#DejaVuSans-50" transform="translate(2854.515625 0)"/>
    <use xlink:href="#DejaVuSans-53" transform="translate(2951.921875 0)"/>
    <use xlink:href="#DejaVuSans-4f" transform="translate(3015.40625 0)"/>
    <use xlink:href="#DejaVuSans-48" transform="translate(3043.1875 0)"/>
    <use xlink:href="#DejaVuSans-1e" transform="translate(3104.71875 0)"/>
    <use xlink:href="#DejaVuSans-3" transform="translate(3138.40625 0)"/>
    <use xlink:href="#DejaVuSans-57" transform="translate(3170.1875 0)"/>
    <use xlink:href="#DejaVuSans-4b" transform="translate(3209.390625 0)"/>
    <use xlink:href="#DejaVuSans-4c" transform="translate(3272.765625 0)"/>
    <use xlink:href="#DejaVuSans-56" transform="translate(3300.546875 0)"/>
    <use xlink:href="#DejaVuSans-3" transform="translate(3352.640625 0)"/>
    <use xlink:href="#DejaVuSans-4c" transform="translate(3384.421875 0)"/>
    <use xlink:href="#DejaVuSans-56" transform="translate(3412.203125 0)"/>
    <use xlink:href="#DejaVuSans-3" transform="translate(3464.296875 0)"/>
    <use xlink:href="#DejaVuSans-50" transform="translate(3496.078125 0)"/>
    <use xlink:href="#DejaVuSans-52" transform="translate(3593.484375 0)"/>
    <use xlink:href="#DejaVuSans-47" transform="translate(3654.671875 0)"/>
    <use xlink:href="#DejaVuSans-48" transform="translate(3718.15625 0)"/>
    <use xlink:href="#DejaVuSans-4f" transform="translate(3779.6875 0)"/>
    <use xlink:href="#DejaVuSans-3" transform="translate(3807.46875 0)"/>
    <use xlink:href="#DejaVuSans-56" transform="translate(3839.25 0)"/>
    <use xlink:href="#DejaVuSans-48" transform="translate(3891.34375 0)"/>
    <use xlink:href="#DejaVuSans-51" transform="translate(3952.875 0)"/>
    <use xlink:href="#DejaVuSans-56" transform="translate(4016.25 0)"/>
    <use xlink:href="#DejaVuSans-4c" transform="translate(4068.34375 0)"/>
    <use xlink:href="#DejaVuSans-57" transform="translate(4096.125 0)"/>
    <use xlink:href="#DejaVuSans-4c" transform="translate(4135.328125 0)"/>
    <use xlink:href="#DejaVuSans-59" transform="translate(4163.109375 0)"/>
    <use xlink:href="#DejaVuSans-4c" transform="translate(4222.296875 0)"/>
    <use xlink:href="#DejaVuSans-57" transform="translate(4250.078125 0)"/>
    <use xlink:href="#DejaVuSans-5c" transform="translate(4289.28125 0)"/>
    <use xlink:href="#DejaVuSans-f" transform="translate(4348.46875 0)"/>
    <use xlink:href="#DejaVuSans-3" transform="translate(4380.25 0)"/>
    <use xlink:href="#DejaVuSans-51" transform="translate(4412.03125 0)"/>
    <use xlink:href="#DejaVuSans-52" transform="translate(4475.40625 0)"/>
    <use xlink:href="#DejaVuSans-57" transform="translate(4536.59375 0)"/>
    <use xlink:href="#DejaVuSans-3" transform="translate(4575.796875 0)"/>
    <use xlink:href="#DejaVuSans-46" transform="translate(4607.578125 0)"/>
    <use xlink:href="#DejaVuSans-44" transform="translate(4662.5625 0)"/>
    <use xlink:href="#DejaVuSans-58" transform="translate(4723.84375 0)"/>
    <use xlink:href="#DejaVuSans-56" transform="translate(4787.21875 0)"/>
    <use xlink:href="#DejaVuSans-44" transform="translate(4839.3125 0)"/>
    <use xlink:href="#DejaVuSans-4f" transform="translate(4900.59375 0)"/>
    <use xlink:href="#DejaVuSans-3" transform="translate(4928.375 0)"/>
    <use xlink:href="#DejaVuSans-53" transform="translate(4960.15625 0)"/>
    <use xlink:href="#DejaVuSans-55" transform="translate(5023.640625 0)"/>
    <use xlink:href="#DejaVuSans-52" transform="translate(5062.546875 0)"/>
    <use xlink:href="#DejaVuSans-52" transform="translate(5123.734375 0)"/>
    <use xlink:href="#DejaVuSans-49" transform="translate(5184.921875 0)"/>
    <use xlink:href="#DejaVuSans-11" transform="translate(5212.84375 0)"/>
   </g>
  </g>
 </g>
 <defs>
  <clipPath id="p2a5ccd3337">
   <rect x="44.103906" y="62.724953" width="261.592705" height="225.123047"/>
  </clipPath>
  <clipPath id="p3c66cedf46">
   <rect x="352.925183" y="62.724953" width="353.150152" height="225.123047"/>
  </clipPath>
 </defs>
</svg>
